# File created by Blade
# Date/Time:  Tue Sep 30 19:33:40 2014
#---------------------------------------------------------
:version 1.10
:name HOM
:units
  mass 1.0
  length 1.000000
  angle deg
:documentation
     Acclaim Skeleton File
:root
   axis xyz
   order TX TY TZ RX RY RZ
   position 0.000000 0.000000 0.000000
   orientation 0 0 0
:bonedata
   begin
      id 1
      name Spine_dum
      direction 0.000000 1.000000 0.000000
      length 3.241213
      axis 0.0 0.0 0.0 xyz
   end
   begin
      id 2
      name LeftUpLeg_dum
      direction 1.000000 0.000000 0.000000
      length 3.434019
      axis 0.0 0.0 0.0 xyz
   end
   begin
      id 3
      name RightUpLeg_dum
      direction -1.000000 0.000000 0.000000
      length 3.434019
      axis 0.0 0.0 0.0 xyz
   end
   begin
      id 4
      name Spine
      direction 0.000000 1.000000 0.000000
      length 0.000000
      axis 0.0 0.0 0.0 xyz
      dof rx ry rz
   end
   begin
      id 5
      name Spine_dum1
      direction 0.000000 1.000000 0.000000
      length 18.382958
      axis 0.0 0.0 0.0 xyz
   end
   begin
      id 6
      name Spine_dum2
      direction 0.000000 1.000000 0.000000
      length 12.828261
      axis 0.0 0.0 0.0 xyz
   end
   begin
      id 7
      name Spine_dum3
      direction 0.000000 1.000000 0.000000
      length 12.828261
      axis 0.0 0.0 0.0 xyz
   end
   begin
      id 8
      name Head
      direction 0.000000 1.000000 0.000000
      length 4.527550
      axis 0.0 0.0 0.0 xyz
      dof rx ry rz
   end
   begin
      id 9
      name LeftShoulder
      direction 1.000000 0.000000 0.000000
      length 7.748055
      axis 0.0 0.0 -90.0 xyz
      dof rx ry rz
   end
   begin
      id 10
      name LeftArm
      direction 1.000000 0.000000 0.000000
      length 10.635614
      axis 0.0 0.0 -90.0 xyz
      dof rx ry rz
   end
   begin
      id 11
      name LeftForeArm
      direction 1.000000 0.000000 0.000000
      length 8.346755
      axis 0.0 0.0 -90.0 xyz
      dof ry rz rx
   end
   begin
      id 12
      name LeftHand
      direction 0.000000 0.000000 0.000000
      length 0.000000
      axis 0.0 0.0 -90.0 xyz
      dof rx ry rz
   end
   begin
      id 13
      name LeftHand_dum1
      direction 0.000000 0.000000 0.000000
      length 0.000000
      axis 0.0 0.0 -90.0 xyz
   end
   begin
      id 14
      name LeftHand_dum2
      direction 1.000000 0.000000 0.000000
      length 3.937000
      axis 0.0 0.0 -90.0 xyz
   end
   begin
      id 15
      name LeftHandThumb1
      direction 0.000000 0.000000 1.000000
      length 3.937000
      axis 0.0 0.0 -90.0 xyz
      dof rx rz ry
   end
   begin
      id 16
      name RightShoulder
      direction -1.000000 0.000000 0.000000
      length 7.748055
      axis 0.0 0.0 90.0 xyz
      dof rx ry rz
   end
   begin
      id 17
      name RightArm
      direction -1.000000 0.000000 0.000000
      length 10.635614
      axis 0.0 0.0 90.0 xyz
      dof rx ry rz
   end
   begin
      id 18
      name RightForeArm
      direction -1.000000 0.000000 0.000000
      length 8.346755
      axis 0.0 0.0 90.0 xyz
      dof ry rz rx
   end
   begin
      id 19
      name RightHand
      direction 0.000000 0.000000 0.000000
      length 0.000000
      axis 0.0 0.0 90.0 xyz
      dof rx ry rz
   end
   begin
      id 20
      name RightHand_dum1
      direction 0.000000 0.000000 0.000000
      length 0.000000
      axis 0.0 0.0 90.0 xyz
   end
   begin
      id 21
      name RightHand_dum2
      direction -1.000000 0.000000 0.000000
      length 3.937000
      axis 0.0 0.0 90.0 xyz
   end
   begin
      id 22
      name RightHandThumb1
      direction 0.000000 0.000000 1.000000
      length 3.937000
      axis 0.0 0.0 90.0 xyz
      dof rx rz ry
   end
   begin
      id 23
      name LeftUpLeg
      direction 0.000000 -1.000000 0.000000
      length 15.713025
      axis 0.0 0.0 0.0 xyz
      dof rx ry rz
   end
   begin
      id 24
      name LeftLeg
      direction 0.000000 -1.000000 0.000000
      length 14.435119
      axis 0.0 0.0 0.0 xyz
      dof rx ry rz
   end
   begin
      id 25
      name LeftFoot
      direction 0.000000 -0.258819 0.965926
      length 4.938895
      axis 15.0 0.0 0.0 xyz
      dof rx ry rz
   end
   begin
      id 26
      name LeftToeBase
      direction 0.000000 0.000000 1.000000
      length 2.952750
      axis 0.0 0.0 0.0 xyz
      dof rx ry rz
   end
   begin
      id 27
      name RightUpLeg
      direction 0.000000 -1.000000 0.000000
      length 15.713025
      axis 0.0 0.0 0.0 xyz
      dof rx ry rz
   end
   begin
      id 28
      name RightLeg
      direction 0.000000 -1.000000 0.000000
      length 14.435119
      axis 0.0 0.0 0.0 xyz
      dof rx ry rz
   end
   begin
      id 29
      name RightFoot
      direction 0.000000 -0.258819 0.965926
      length 4.938895
      axis 15.0 0.0 0.0 xyz
      dof rx ry rz
   end
   begin
      id 30
      name RightToeBase
      direction 0.000000 0.000000 1.000000
      length 2.952750
      axis 0.0 0.0 0.0 xyz
      dof rx ry rz
   end
:hierarchy
   begin
      root Spine_dum LeftUpLeg_dum RightUpLeg_dum
      Spine_dum Spine
      LeftUpLeg_dum LeftUpLeg
      RightUpLeg_dum RightUpLeg
      Spine Spine_dum1 Spine_dum2 Spine_dum3
      Spine_dum1 Head
      Spine_dum2 LeftShoulder
      Spine_dum3 RightShoulder
      LeftShoulder LeftArm
      LeftArm LeftForeArm
      LeftForeArm LeftHand
      LeftHand LeftHand_dum1 LeftHand_dum2
      LeftHand_dum1 LeftHandThumb1
      RightShoulder RightArm
      RightArm RightForeArm
      RightForeArm RightHand
      RightHand RightHand_dum1 RightHand_dum2
      RightHand_dum1 RightHandThumb1
      LeftUpLeg LeftLeg
      LeftLeg LeftFoot
      LeftFoot LeftToeBase
      RightUpLeg RightLeg
      RightLeg RightFoot
      RightFoot RightToeBase
   end

# File created by Blade
# Date/Time:  Mon Sep 22 21:09:19 2014
# Frame Rate: 120.000 fps
#------------------------------------------------------
:FULLY-SPECIFIED
:DEGREES
1693
root -3.291293 32.788686 -6.221795 17.380657 19.406838 -21.525091
Spine -28.762177 -4.245532 13.653937
Head 6.490817 -8.326280 9.850711
LeftShoulder -2.212520 41.293116 25.519254
LeftArm 90.587743 27.536112 -36.515951
LeftForeArm -37.257280 -0.000000 70.670679
LeftHand -24.220300 -0.000000 -3.817757
LeftHandThumb1 -26.253704 0.000000 33.147579
RightShoulder -6.109702 -49.588353 -14.567214
RightArm 68.017669 -15.567132 47.793915
RightForeArm 65.344841 -0.000000 69.594054
RightHand 1.105634 -0.000000 26.974747
RightHandThumb1 -24.326973 -0.000000 -32.862282
LeftUpLeg -39.333442 10.540461 12.972970
LeftLeg 33.645374 -0.000000 -0.000000
LeftFoot -14.721657 -1.481071 1.573635
LeftToeBase -4.616857 -0.000000 0.000000
RightUpLeg -150.702708 1.985887 12.500245
RightLeg 104.412645 -0.000000 -0.000000
RightFoot 41.512819 -18.247834 5.873316
RightToeBase 46.734182 -0.000000 -0.000000
1694
root -3.356138 32.815408 -6.227162 16.994292 19.660614 -22.211204
Spine -28.760251 -4.246866 13.941529
Head 6.561399 -8.814600 9.778545
LeftShoulder -2.140931 41.233558 25.654626
LeftArm 90.734412 27.494242 -36.573414
LeftForeArm -37.185053 -0.000000 70.589240
LeftHand -24.335019 0.000000 -3.965724
LeftHandThumb1 -26.253704 0.000000 33.147579
RightShoulder -6.148615 -49.629840 -14.502818
RightArm 67.924421 -15.433826 47.852385
RightForeArm 65.465636 -0.000000 69.739971
RightHand 1.152862 -0.000000 26.962545
RightHandThumb1 -24.326973 -0.000000 -32.862282
LeftUpLeg -39.254298 11.090701 13.579647
LeftLeg 33.589942 -0.000000 -0.000000
LeftFoot -15.210488 -2.342060 0.992175
LeftToeBase -3.319270 -0.000000 0.000000
RightUpLeg -150.746150 1.717534 12.720833
RightLeg 104.141188 -0.000000 -0.000000
RightFoot 41.630038 -18.222021 5.904869
RightToeBase 46.734266 -0.000000 -0.000000
1695
root -3.419499 32.843013 -6.231311 16.585582 19.984491 -22.934226
Spine -28.786018 -4.324343 14.296762
Head 6.661478 -9.302147 9.723962
LeftShoulder -2.045290 41.130691 25.842232
LeftArm 90.860326 27.492695 -36.649515
LeftForeArm -37.096368 -0.000000 70.548327
LeftHand -24.415437 -0.000000 -3.962712
LeftHandThumb1 -26.253704 0.000000 33.147579
RightShoulder -6.143492 -49.650263 -14.453523
RightArm 67.838475 -15.240254 47.906361
RightForeArm 65.571722 -0.000000 69.864751
RightHand 1.100029 -0.000000 27.074883
RightHandThumb1 -24.326973 -0.000000 -32.862282
LeftUpLeg -39.114134 11.573173 14.219762
LeftLeg 33.380993 -0.000000 -0.000000
LeftFoot -15.719858 -3.110629 0.560891
LeftToeBase -2.112816 -0.000000 0.000000
RightUpLeg -150.829177 1.346497 13.008034
RightLeg 103.828941 -0.000000 -0.000000
RightFoot 41.779713 -18.084549 5.818950
RightToeBase 46.609964 -0.000000 -0.000000
1696
root -3.483223 32.871757 -6.232404 16.213075 20.336317 -23.709427
Spine -28.905644 -4.398625 14.730672
Head 6.815339 -9.734320 9.618076
LeftShoulder -1.888727 41.003743 26.074775
LeftArm 90.897126 27.507561 -36.809354
LeftForeArm -37.149463 -0.000000 70.576303
LeftHand -24.552997 -0.000000 -3.925792
LeftHandThumb1 -26.253704 0.000000 33.147579
RightShoulder -6.171126 -49.655901 -14.406058
RightArm 67.738239 -15.045224 47.911762
RightForeArm 65.548982 -0.000000 70.042663
RightHand 1.033727 -0.000000 27.171077
RightHandThumb1 -24.326973 -0.000000 -32.862282
LeftUpLeg -38.943314 12.135177 14.865162
LeftLeg 32.982793 -0.000000 -0.000000
LeftFoot -16.327680 -3.900091 0.156930
LeftToeBase -0.852394 -0.000000 0.000000
RightUpLeg -151.003966 0.919621 13.322458
RightLeg 103.455819 -0.000000 -0.000000
RightFoot 41.882719 -17.902501 5.805809
RightToeBase 46.693857 -0.000000 -0.000000
1697
root -3.543960 32.897614 -6.231404 15.783600 20.754172 -24.503474
Spine -29.006930 -4.573513 15.218773
Head 6.959631 -10.188884 9.503610
LeftShoulder -1.717856 40.805281 26.331323
LeftArm 90.910019 27.558544 -36.968823
LeftForeArm -37.196756 -0.000000 70.633516
LeftHand -24.694886 0.000000 -3.849225
LeftHandThumb1 -26.253704 0.000000 33.147579
RightShoulder -6.161886 -49.552104 -14.401100
RightArm 67.613964 -14.912624 47.872435
RightForeArm 65.841402 -0.000000 70.192802
RightHand 1.136982 -0.000000 27.189789
RightHandThumb1 -24.326973 -0.000000 -32.862282
LeftUpLeg -38.676509 12.664216 15.514644
LeftLeg 32.451827 -0.000000 -0.000000
LeftFoot -17.047463 -4.679401 -0.232155
LeftToeBase 0.506811 -0.000000 -0.000000
RightUpLeg -151.210420 0.349285 13.665266
RightLeg 103.057976 -0.000000 -0.000000
RightFoot 41.942242 -17.594717 5.742182
RightToeBase 46.840080 -0.000000 -0.000000
1698
root -3.604355 32.920498 -6.225588 15.272736 21.229880 -25.349463
Spine -29.072325 -4.804778 15.766859
Head 7.104614 -10.576106 9.414761
LeftShoulder -1.530521 40.646328 26.620696
LeftArm 90.977194 27.550271 -37.095297
LeftForeArm -37.173088 0.000000 70.702426
LeftHand -24.619153 -0.000000 -3.809169
LeftHandThumb1 -26.253704 0.000000 33.147579
RightShoulder -6.192648 -49.470621 -14.355784
RightArm 67.467883 -14.766356 47.871164
RightForeArm 66.051139 -0.000000 70.426503
RightHand 1.251316 0.000000 27.202068
RightHandThumb1 -24.326973 -0.000000 -32.862282
LeftUpLeg -38.298134 13.154054 16.215323
LeftLeg 31.780346 -0.000000 -0.000000
LeftFoot -17.853339 -5.263929 -0.475519
LeftToeBase 1.798454 -0.000000 -0.000000
RightUpLeg -151.425465 -0.296661 14.083297
RightLeg 102.574337 -0.000000 -0.000000
RightFoot 42.017550 -17.591808 5.839213
RightToeBase 46.972246 -0.000000 -0.000000
1699
root -3.665117 32.941927 -6.223668 14.813035 21.757093 -26.281425
Spine -29.246308 -5.044242 16.442203
Head 7.244792 -10.985671 9.251799
LeftShoulder -1.259017 40.386368 26.946622
LeftArm 90.944891 27.570030 -37.328934
LeftForeArm -37.142911 -0.000000 70.798382
LeftHand -24.601151 -0.000000 -3.842373
LeftHandThumb1 -26.253704 0.000000 33.147579
RightShoulder -6.236396 -49.382615 -14.333377
RightArm 67.298825 -14.562474 47.869160
RightForeArm 66.245311 -0.000000 70.702779
RightHand 1.285191 -0.000000 27.308723
RightHandThumb1 -24.326973 -0.000000 -32.862282
LeftUpLeg -38.019425 13.671091 16.950823
LeftLeg 31.079085 -0.000000 -0.000000
LeftFoot -18.759648 -5.742278 -1.026161
LeftToeBase 3.045797 -0.000000 -0.000000
RightUpLeg -151.759453 -1.050965 14.602549
RightLeg 102.022644 -0.000000 -0.000000
RightFoot 42.115371 -17.433014 5.862679
RightToeBase 46.773039 -0.000000 -0.000000
1700
root -3.723356 32.961664 -6.224146 14.341530 22.447065 -27.221934
Spine -29.454790 -5.478311 17.198388
Head 7.339802 -11.319188 9.101922
LeftShoulder -1.042550 40.144027 27.243515
LeftArm 90.932076 27.556079 -37.570108
LeftForeArm -37.097591 -0.000000 70.883099
LeftHand -24.595525 -0.000000 -3.975399
LeftHandThumb1 -26.253704 0.000000 33.147579
RightShoulder -6.220369 -49.185862 -14.324234
RightArm 66.996672 -14.397169 47.909609
RightForeArm 66.331355 -0.000000 71.083937
RightHand 1.477548 0.000000 27.214469
RightHandThumb1 -24.326973 -0.000000 -32.862282
LeftUpLeg -37.870250 13.992397 17.704795
LeftLeg 30.551727 -0.000000 -0.000000
LeftFoot -19.674595 -6.035318 -1.925290
LeftToeBase 4.004791 -0.000000 -0.000000
RightUpLeg -152.190092 -2.023867 15.156795
RightLeg 101.397621 -0.000000 -0.000000
RightFoot 42.190250 -17.403983 5.914450
RightToeBase 46.653824 -0.000000 -0.000000
1701
root -3.779483 32.979142 -6.223212 13.696428 23.208127 -28.188561
Spine -29.511636 -6.011540 17.974954
Head 7.346097 -11.645520 9.013414
LeftShoulder -0.791380 39.892145 27.539082
LeftArm 90.978164 27.474985 -37.791287
LeftForeArm -37.009214 -0.000000 70.957441
LeftHand -24.708258 -0.000000 -4.034012
LeftHandThumb1 -26.253704 0.000000 33.147579
RightShoulder -6.292754 -48.984165 -14.210772
RightArm 66.709318 -14.155479 48.010868
RightForeArm 66.453255 -0.000000 71.396006
RightHand 1.379709 -0.000000 27.090210
RightHandThumb1 -24.326973 -0.000000 -32.862282
LeftUpLeg -37.755768 14.271354 18.480624
LeftLeg 30.293612 -0.000000 -0.000000
LeftFoot -20.557843 -6.390447 -2.657486
LeftToeBase 4.961196 -0.000000 -0.000000
RightUpLeg -152.515021 -3.155757 15.760974
RightLeg 100.668350 -0.000000 -0.000000
RightFoot 42.183868 -17.435905 5.935663
RightToeBase 46.650372 -0.000000 -0.000000
1702
root -3.840246 33.009235 -6.230601 13.147269 23.982520 -29.262075
Spine -29.686822 -6.429605 18.832960
Head 7.268452 -12.071468 8.900140
LeftShoulder -0.471117 39.549062 27.810106
LeftArm 91.036886 27.355749 -37.917245
LeftForeArm -37.052044 -0.000000 71.002635
LeftHand -24.594765 0.000000 -3.803744
LeftHandThumb1 -26.253704 0.000000 33.147579
RightShoulder -6.577894 -48.868874 -13.940050
RightArm 66.501885 -13.927734 48.297907
RightForeArm 66.438121 0.000000 71.630493
RightHand 1.298216 -0.000000 27.219993
RightHandThumb1 -24.326973 -0.000000 -32.862282
LeftUpLeg -38.017052 14.583694 19.355926
LeftLeg 30.265430 -0.000000 -0.000000
LeftFoot -21.140202 -6.732108 -3.954336
LeftToeBase 4.548850 -0.000000 -0.000000
RightUpLeg -152.920997 -4.263575 16.471063
RightLeg 99.755889 -0.000000 -0.000000
RightFoot 42.134839 -17.531880 5.863509
RightToeBase 46.427153 -0.000000 -0.000000
1703
root -3.892804 33.048087 -6.240842 12.573962 24.742027 -30.314736
Spine -29.839194 -6.897359 19.714054
Head 7.188291 -12.347522 8.823128
LeftShoulder -0.208624 39.240765 27.976090
LeftArm 91.123890 27.217753 -38.043375
LeftForeArm -37.032660 -0.000000 70.987520
LeftHand -24.582234 0.000000 -3.642741
LeftHandThumb1 -26.253704 0.000000 33.147579
RightShoulder -6.796201 -48.815161 -13.681266
RightArm 66.320052 -13.635562 48.478323
RightForeArm 66.528054 0.000000 71.964878
RightHand 1.391651 -0.000000 27.240154
RightHandThumb1 -24.326973 -0.000000 -32.862282
LeftUpLeg -38.446097 14.898259 20.170331
LeftLeg 30.499393 -0.000000 -0.000000
LeftFoot -21.178484 -6.533470 -4.850677
LeftToeBase 3.466899 -0.000000 -0.000000
RightUpLeg -153.276898 -5.444724 17.217660
RightLeg 98.681882 -0.000000 -0.000000
RightFoot 42.066994 -17.651441 5.928919
RightToeBase 46.225105 -0.000000 -0.000000
1704
root -3.941691 33.087239 -6.238959 11.727478 25.486035 -31.297289
Spine -29.691922 -7.477724 20.455678
Head 7.020961 -12.662042 8.819658
LeftShoulder 0.017132 39.016325 28.144500
LeftArm 91.388799 26.979050 -38.072631
LeftForeArm -37.093069 -0.000000 70.909968
LeftHand -24.608764 -0.000000 -3.431912
LeftHandThumb1 -26.253704 0.000000 33.147579
RightShoulder -7.064958 -48.780733 -13.406810
RightArm 66.129035 -13.407599 48.894043
RightForeArm 66.487760 0.000000 72.223790
RightHand 1.427551 -0.000000 27.226169
RightHandThumb1 -24.326973 -0.000000 -32.862282
LeftUpLeg -38.626705 15.135532 20.967636
LeftLeg 30.826324 -0.000000 -0.000000
LeftFoot -21.213965 -6.456669 -5.746070
LeftToeBase 3.303759 -0.000000 -0.000000
RightUpLeg -153.374649 -6.766814 17.860095
RightLeg 97.498372 -0.000000 -0.000000
RightFoot 42.031272 -17.851862 6.013018
RightToeBase 45.985706 -0.000000 -0.000000
1705
root -3.983912 33.128908 -6.234630 10.836383 26.127766 -32.303335
Spine -29.478050 -7.963686 21.191033
Head 6.815861 -12.993399 8.776149
LeftShoulder 0.235565 38.750173 28.343945
LeftArm 91.670601 26.820291 -38.177272
LeftForeArm -36.979412 -0.000000 70.792689
LeftHand -24.757787 -0.000000 -3.429725
LeftHandThumb1 -26.253704 0.000000 33.147579
RightShoulder -7.386783 -48.836414 -13.143507
RightArm 66.020508 -13.154854 49.359371
RightForeArm 66.524766 0.000000 72.480774
RightHand 1.339023 0.000000 27.201724
RightHandThumb1 -24.326973 -0.000000 -32.862282
LeftUpLeg -38.746265 15.500571 21.673166
LeftLeg 31.132262 -0.000000 -0.000000
LeftFoot -21.312739 -5.229829 -5.815200
LeftToeBase 1.597301 -0.000000 -0.000000
RightUpLeg -153.389906 -8.093231 18.538165
RightLeg 96.144388 -0.000000 -0.000000
RightFoot 42.005430 -17.905451 6.265335
RightToeBase 45.744883 -0.000000 -0.000000
